<svg xmlns="http://www.w3.org/2000/svg" xmlns:xlink="http://www.w3.org/1999/xlink" width="300" height="300" viewBox="0 0 300 300">
  <defs>
    <linearGradient id="linear-gradient" x1="0.5" x2="0.5" y2="1" gradientUnits="objectBoundingBox">
      <stop offset="0" stop-color="#175ad8"/>
      <stop offset="0.531" stop-color="#2e328c"/>
      <stop offset="1" stop-color="#10398a"/>
    </linearGradient>
    <linearGradient id="linear-gradient-2" x1="0.5" x2="0.5" y2="1" gradientUnits="objectBoundingBox">
      <stop offset="0" stop-color="#fff"/>
      <stop offset="0.531" stop-color="#fff"/>
      <stop offset="1" stop-color="gray"/>
    </linearGradient>
    <clipPath id="clip-Listing-Logo-300x300">
      <rect width="300" height="300"/>
    </clipPath>
  </defs>
  <g id="Listing-Logo-300x300" clip-path="url(#clip-Listing-Logo-300x300)">
    <g id="ListingLogo" transform="translate(-14474.178 -13225.178)">
      <circle id="Ellipse_341" data-name="Ellipse 341" cx="140" cy="140" r="140" transform="translate(14484.178 13235.178)" fill="url(#linear-gradient)"/>
      <g id="Logo-Silver" transform="translate(14547.577 13289.586)">
        <path id="Subtraction_16" data-name="Subtraction 16" d="M76.793,175.119a7.192,7.192,0,0,1-3.592-.963L3.592,133.971A7.183,7.183,0,0,1,0,127.75V47.374a7.184,7.184,0,0,1,3.591-6.221L73.2.963a7.184,7.184,0,0,1,7.184,0l69.608,40.186a7.184,7.184,0,0,1,3.592,6.222v80.376a7.183,7.183,0,0,1-3.591,6.221L80.384,174.16a7.194,7.194,0,0,1-3.591.959Zm.147-156.6a7.194,7.194,0,0,0-3.592.958L19.556,50.538a7.2,7.2,0,0,0-3.592,6.211l-.115,61.863a7.2,7.2,0,0,0,3.6,6.243l53.632,30.827a7.183,7.183,0,0,0,7.175-.007l53.792-31.057a7.206,7.206,0,0,0,3.592-6.208l.115-61.863a7.2,7.2,0,0,0-3.6-6.243L80.52,19.475a7.193,7.193,0,0,0-3.58-.956Zm-.28,118.224a7.194,7.194,0,0,1-3.59-.962l-5.311-3.064V96.856l17.63-4.449v23.085l18.644-10.743V53.119l12.59,7.268a7.184,7.184,0,0,1,3.594,6.225l-.012,41.959a7.183,7.183,0,0,1-3.592,6.219L80.248,135.779a7.2,7.2,0,0,1-3.592.963ZM49.124,121.966h0l-12.4-7.156a7.184,7.184,0,0,1-3.594-6.224l.012-41.961a7.184,7.184,0,0,1,3.592-6.219L73.1,39.417a7.184,7.184,0,0,1,7.182,0l5.108,2.947V74.512l-17.63,4.156V58.441L49.124,69.222v52.742h0Z" transform="translate(0 0)" fill="url(#linear-gradient-2)"/>
      </g>
    </g>
  </g>
</svg>
